<svg width="15" height="15" viewBox="0 0 15 15" fill="none" xmlns="http://www.w3.org/2000/svg">
<path d="M14.8052 13.8545L8.60978 7.65915L14.8052 1.46375C15.0548 1.20545 15.0548 0.795867 14.8052 0.537485C14.5494 0.272674 14.1274 0.26535 13.8625 0.521128L7.66716 6.71652L1.47184 0.521209C1.21354 0.271697 0.803955 0.271697 0.545573 0.521209C0.280762 0.776987 0.273438 1.19902 0.529216 1.46384L6.72453 7.65915L0.529216 13.8545C0.404216 13.9795 0.333984 14.149 0.333984 14.3257C0.333903 14.6939 0.632406 14.9924 1.00057 14.9925C1.17741 14.9926 1.34701 14.9223 1.47184 14.7971L7.66716 8.60178L13.8625 14.7972C13.9874 14.9224 14.1571 14.9927 14.3339 14.9925C14.5106 14.9924 14.68 14.9222 14.805 14.7973C15.0654 14.537 15.0655 14.1149 14.8052 13.8545Z" fill="#FFFFFF"/>
</svg>
