<svg width="38" height="38" viewBox="0 0 38 38" fill="none" xmlns="http://www.w3.org/2000/svg">
<rect width="38" height="38" rx="5" fill="#D800FB" fill-opacity="0.07"/>
<path fill-rule="evenodd" clip-rule="evenodd" d="M12.4584 22.3404C12.5484 22.2157 12.7551 22.0147 12.7551 22.0147C13.4864 21.2344 15.3055 20.0591 16.2283 19.6817C16.2283 19.6738 16.7771 19.45 17.0381 19.4412L17.0728 19.4412C17.4728 19.4412 17.8469 19.665 18.0384 20.0249C18.1174 20.1732 18.1908 20.5341 18.2263 20.7082C18.238 20.7658 18.2456 20.803 18.2478 20.8052C18.3262 21.3195 18.3778 22.1086 18.3778 22.975C18.3778 23.8843 18.3262 24.7076 18.23 25.2141C18.23 25.2229 18.1346 25.6855 18.0732 25.8399C17.9779 26.0629 17.8033 26.2516 17.5859 26.3718C17.4122 26.4579 17.2287 26.5 17.0381 26.5C16.8376 26.4921 16.4635 26.3631 16.3156 26.3034C15.3402 25.926 13.4775 24.691 12.764 23.9361C12.6844 23.8577 12.601 23.7685 12.543 23.7064C12.5121 23.6732 12.4884 23.6478 12.4763 23.6359C12.3284 23.4472 12.25 23.2155 12.25 22.9662C12.25 22.7441 12.3195 22.5212 12.4584 22.3404ZM17.6213 14.3285C18.0142 14.3285 18.3322 14.6419 18.3322 15.029C18.3322 15.4161 18.0142 15.7294 17.6213 15.7294L14.1872 15.9225C13.6866 15.9225 13.2812 15.5223 13.2812 15.029C13.2812 14.5357 13.6866 14.1363 14.1872 14.1363L17.6213 14.3285ZM19.9267 12.1601C20.0229 11.9371 20.1966 11.7484 20.414 11.6282C20.5877 11.5421 20.7712 11.5 20.9627 11.5C21.1623 11.5079 21.5373 11.6369 21.6852 11.6975C22.6597 12.074 24.5224 13.3099 25.2369 14.0639C25.3146 14.141 25.3963 14.2286 25.4541 14.2905L25.4541 14.2905L25.4541 14.2905C25.4864 14.3252 25.5113 14.3518 25.5237 14.3641C25.6716 14.5537 25.75 14.7845 25.75 15.0329C25.75 15.2567 25.6805 15.4797 25.5407 15.6596C25.4516 15.7843 25.2449 15.9853 25.2449 15.9853C24.5144 16.7665 22.6945 17.9409 21.7716 18.3183C21.7716 18.3271 21.2237 18.55 20.9627 18.5588L20.928 18.5588C20.5271 18.5588 20.153 18.3359 19.9614 17.9751C19.8833 17.8271 19.8097 17.4674 19.7739 17.2929L19.7739 17.2929L19.7739 17.2929L19.7739 17.2928C19.762 17.2346 19.7543 17.197 19.7521 17.1948C19.6737 16.6804 19.622 15.8914 19.622 15.025C19.622 14.1157 19.6737 13.2924 19.7699 12.7859C19.7699 12.778 19.8652 12.3145 19.9267 12.1601ZM19.6679 22.9709C19.6679 23.3579 19.9859 23.6713 20.3788 23.6713L23.8128 23.8644C24.3134 23.8644 24.7187 23.4641 24.7187 22.9709C24.7187 22.4776 24.3134 22.0782 23.8128 22.0782L20.3788 22.2704C19.9859 22.2704 19.6679 22.5838 19.6679 22.9709Z" fill="#D800FB"/>
</svg>
