<svg width="38" height="38" viewBox="0 0 38 38" fill="none" xmlns="http://www.w3.org/2000/svg">
<rect width="38" height="38" rx="5" fill="#008AF4" fill-opacity="0.07"/>
<path d="M28 10H10C9.20435 10 8.44129 10.3161 7.87868 10.8787C7.31607 11.4413 7 12.2044 7 13V14H31V13C31 12.2044 30.6839 11.4413 30.1213 10.8787C29.5587 10.3161 28.7956 10 28 10ZM7 25C7 25.7956 7.31607 26.5587 7.87868 27.1213C8.44129 27.6839 9.20435 28 10 28H28C28.7956 28 29.5587 27.6839 30.1213 27.1213C30.6839 26.5587 31 25.7956 31 25V16H7V25ZM12 20H16C16.2652 20 16.5196 20.1054 16.7071 20.2929C16.8946 20.4804 17 20.7348 17 21C17 21.2652 16.8946 21.5196 16.7071 21.7071C16.5196 21.8946 16.2652 22 16 22H12C11.7348 22 11.4804 21.8946 11.2929 21.7071C11.1054 21.5196 11 21.2652 11 21C11 20.7348 11.1054 20.4804 11.2929 20.2929C11.4804 20.1054 11.7348 20 12 20Z" fill="#008AF4"/>
</svg>
