<svg width="16" height="17" viewBox="0 0 16 17" fill="none" xmlns="http://www.w3.org/2000/svg">
<path d="M6.3749 13.296C4.77732 13.296 3.47738 11.9961 3.47738 10.3985V3.40991H2.2838C1.24978 3.40991 0.409058 4.25063 0.409058 5.28466V14.4896C0.409058 15.5236 1.24978 16.3644 2.2838 16.3644H10.8066C11.8406 16.3644 12.6813 15.5236 12.6813 14.4896V13.296H6.3749Z" fill="#FBB900"/>
<path d="M6.37487 0C5.3388 0 4.50012 0.839697 4.50012 1.87474V10.3975C4.50012 11.4336 5.33982 12.2723 6.37487 12.2723H13.5343C14.5704 12.2723 15.409 11.4326 15.409 10.3975V2.04555C15.409 0.915383 14.4936 0 13.3635 0H6.37487Z" fill="#FBB900"/>
</svg>
